<svg xmlns="http://www.w3.org/2000/svg" viewBox="0 0 100 100" fill="none">
  <defs>
    <linearGradient id="aquilaEagleLight" x1="0%" y1="0%" x2="100%" y2="100%">
      <stop offset="0%" stop-color="#ffffff" />
      <stop offset="100%" stop-color="#93c5fd" />
    </linearGradient>
    <linearGradient id="aquilaEagleBlue" x1="0%" y1="0%" x2="100%" y2="100%">
      <stop offset="0%" stop-color="#38bdf8" />
      <stop offset="100%" stop-color="#1d4ed8" />
    </linearGradient>
  </defs>
  <!-- Minimalist Eagle Head & Hooked Beak -->
  <path d="M12 56C14 30 32 14 58 14C72 14 83 20 90 33C92.5 38 87 43 80 43C73 43 68 39 60 39C52 39 45 45 40 53C35 61 28 75 16 82C13 74 11 65 12 56Z" fill="url(#aquilaEagleBlue)" />
  <!-- Under-beak & Jaw Accent (Defines the unmistakable hooked beak) -->
  <path d="M58 43C65 43 72 46 76 50C78 52 76 55 72 55C65 55 58 50 50 50C44 50 38 54 34 60L28 68C32 58 42 50 50 47L58 43Z" fill="#38bdf8" opacity="0.9" />
  <!-- Piercing Eagle Eye (Negative space / White) -->
  <polygon points="52,27 38,27 46,35" fill="#ffffff" />
</svg>